<?xml version="1.0" standalone="no"?>
<!DOCTYPE svg PUBLIC "-//W3C//DTD SVG 20010904//EN"
 "http://www.w3.org/TR/2001/REC-SVG-20010904/DTD/svg10.dtd">
<svg version="1.0" xmlns="http://www.w3.org/2000/svg"
 width="1260.000000pt" height="1100.000000pt" viewBox="0 0 1260.000000 1100.000000"
 preserveAspectRatio="xMidYMid meet">
<metadata>
Created by potrace 1.15, written by Peter Selinger 2001-2017
</metadata>
<g transform="translate(0.000000,1100.000000) scale(0.100000,-0.100000)"
fill="#2b3990" stroke="none">
<path d="M1805 10909 c-145 -6 -209 -13 -270 -29 -65 -18 -118 -23 -280 -27
-116 -3 -229 -1 -270 5 -304 46 -317 47 -437 29 -62 -10 -135 -22 -163 -27
-27 -5 -67 -12 -87 -15 -21 -3 -44 -13 -53 -21 -19 -20 -19 -76 1 -144 10 -34
13 -66 9 -89 -10 -50 -10 -147 0 -198 5 -26 4 -48 -3 -55 -29 -37 -35 -129
-38 -560 -1 -240 -5 -441 -8 -446 -8 -13 -9 -508 -1 -912 10 -598 15 -785 19
-810 3 -14 10 -90 16 -170 6 -80 20 -235 32 -345 12 -110 22 -247 22 -305 1
-135 -12 -387 -25 -468 -5 -36 -9 -349 -8 -750 1 -596 -1 -700 -15 -787 -49
-293 -50 -325 -48 -1020 1 -363 4 -736 8 -830 4 -93 6 -190 5 -215 -2 -25 -3
-54 -4 -65 -5 -100 5 -375 13 -370 13 8 13 -115 0 -135 -8 -12 -10 -12 -11 5
0 11 -7 -20 -15 -70 -7 -49 -21 -119 -30 -155 -27 -109 -34 -158 -74 -505 -31
-267 -22 -781 14 -857 10 -21 22 -35 27 -32 5 3 9 4 10 2 0 -2 4 -39 9 -83 19
-174 31 -258 40 -276 17 -31 104 -51 191 -43 55 5 83 3 100 -7 18 -10 80 -14
239 -15 228 -1 284 6 429 52 87 28 102 29 178 8 86 -24 172 -28 331 -14 121
11 152 11 195 0 71 -19 194 -15 291 10 69 18 104 21 243 18 120 -2 165 0 174
10 19 18 53 16 45 -3 -3 -9 0 -15 10 -15 9 0 39 -13 67 -28 69 -37 153 -44
297 -25 60 7 65 10 74 38 5 17 17 50 26 75 18 46 33 207 19 215 -4 3 -5 98 -4
212 4 207 4 208 -21 245 -13 21 -24 40 -24 44 0 3 -14 24 -32 46 l-32 41 -135
-5 c-123 -5 -141 -8 -191 -33 -52 -26 -62 -28 -195 -28 -135 0 -218 11 -415
56 -106 24 -520 3 -650 -33 -75 -21 -397 -45 -411 -31 -4 3 -1 85 7 181 7 96
16 256 19 355 4 99 8 189 10 200 3 11 -3 100 -11 198 -13 146 -15 298 -11 845
2 367 7 685 10 707 3 22 11 96 17 165 6 69 20 202 30 295 58 523 58 513 76
1365 6 303 -4 637 -31 960 -19 234 -23 342 -32 825 -10 528 -10 1083 0 1405
18 585 14 911 -18 1325 -8 105 -15 196 -15 203 0 7 13 12 30 12 33 0 91 13
189 41 82 24 133 24 207 -1 54 -18 78 -20 268 -15 175 4 217 2 258 -12 57 -18
206 -13 293 11 28 8 77 12 110 10 242 -13 287 -13 302 2 16 15 39 14 36 -3 -1
-5 27 -24 61 -42 81 -41 182 -57 265 -43 32 6 68 8 79 6 23 -7 52 20 52 46 0
11 10 39 22 62 21 39 28 85 27 173 -2 88 0 253 4 348 3 91 1 114 -14 140 -10
18 -25 46 -34 62 -42 81 -39 80 -192 80 -129 0 -143 -2 -208 -29 -67 -27 -74
-28 -180 -22 -140 8 -172 13 -270 35 -171 39 -291 61 -323 59 -15 -1 -112 -5
-217 -9z m-959 -8444 c-2 -107 -1 -197 2 -200 3 -3 11 7 18 22 10 24 13 25 14
8 3 -29 4 -63 2 -123 -2 -68 -21 -59 -24 11 -1 29 -4 -11 -8 -88 -4 -78 -13
-153 -20 -170 l-13 -30 -8 45 c-4 25 -3 137 3 250 5 113 10 261 12 330 4 155
4 152 16 145 6 -3 8 -82 6 -200z"/>
<path d="M9630 10899 c-41 -3 -122 -13 -180 -23 -58 -10 -120 -20 -138 -22
-49 -7 -62 -36 -51 -109 5 -33 14 -73 21 -88 9 -22 7 -40 -7 -88 -15 -49 -16
-67 -7 -112 6 -28 16 -99 22 -157 6 -58 15 -130 21 -160 15 -86 40 -98 229
-105 52 -1 122 -8 155 -13 83 -14 435 -15 509 -1 34 7 93 20 132 30 90 24 136
24 213 -1 54 -18 87 -21 273 -20 116 0 213 2 216 5 2 2 21 -3 41 -12 53 -24
238 -21 337 6 25 7 88 9 165 5 164 -7 253 -5 257 7 5 13 40 11 49 -3 4 -7 33
-25 63 -40 30 -15 49 -28 41 -28 -7 0 -28 8 -45 19 -26 15 -60 20 -194 24
l-163 6 2 -242 c1 -133 -3 -357 -9 -497 -6 -140 -12 -534 -12 -875 0 -574 6
-787 31 -1115 5 -69 14 -195 21 -281 11 -142 10 -177 -12 -405 -36 -385 -38
-428 -45 -1094 -4 -344 -11 -668 -16 -720 -27 -263 -30 -390 -19 -690 6 -168
15 -357 21 -420 6 -63 12 -239 14 -390 13 -908 17 -1030 35 -1030 4 0 10 -26
13 -57 3 -43 1 -62 -11 -75 -9 -11 -16 -44 -19 -85 -2 -38 -10 -99 -18 -138
-21 -111 -33 -239 -51 -567 l-17 -306 -46 -7 c-25 -3 -83 -15 -129 -27 -91
-23 -144 -21 -227 8 -44 15 -78 16 -270 11 -177 -6 -228 -4 -260 8 -27 9 -66
12 -119 10 -85 -5 -251 -31 -277 -45 -9 -4 -22 -4 -30 1 -8 5 -48 9 -89 9 -41
0 -82 0 -90 1 -43 6 -131 -2 -125 -11 3 -5 2 -10 -4 -10 -5 0 -16 -3 -25 -6
-10 -4 -16 -1 -16 9 0 19 -93 64 -163 78 -36 8 -97 9 -172 4 -106 -6 -117 -9
-125 -29 -4 -11 -19 -48 -33 -81 -24 -60 -25 -61 -22 -352 2 -161 7 -298 11
-305 4 -7 28 -44 52 -82 l45 -68 151 4 c139 4 156 7 211 32 l60 28 165 -6 c91
-3 197 -13 235 -21 39 -9 86 -18 105 -21 19 -3 53 -10 75 -17 55 -15 423 -10
551 8 54 8 131 21 169 29 81 17 474 14 535 -4 68 -20 186 -40 270 -45 77 -5
305 14 400 33 49 10 57 39 40 147 -12 74 -11 92 1 119 9 22 13 61 11 129 -2
55 1 104 6 110 35 46 63 345 69 732 4 307 -3 416 -37 600 -22 117 -35 449 -35
900 0 278 11 657 20 705 2 9 6 88 10 176 3 87 10 195 15 239 17 142 32 1822
19 2060 -14 251 -20 1745 -9 2035 4 113 14 311 21 440 18 301 18 1017 0 1255
-7 99 -14 200 -16 225 -4 65 -4 67 -16 50 -8 -11 -8 -9 -3 10 5 14 8 157 7
317 l-2 293 -36 59 c-57 92 -64 97 -144 105 -117 12 -289 -13 -311 -45 -7 -11
-158 -13 -255 -5 -87 7 -251 37 -355 64 -55 14 -105 17 -315 14 -137 -2 -275
-7 -305 -12 -30 -5 -92 -16 -137 -24 -111 -21 -480 -15 -608 9 -123 23 -226
31 -315 24z m2580 -8342 c0 -61 4 -126 9 -143 5 -17 5 -50 1 -74 -5 -29 -4
-50 6 -69 l14 -26 0 40 c0 60 19 29 21 -35 3 -90 0 -127 -10 -112 -5 9 -10
-31 -13 -100 -5 -125 -16 -166 -31 -108 -13 55 -20 740 -8 740 7 0 11 -40 11
-113z"/>
<path d="M5995 9284 c-666 -42 -1186 -208 -1668 -533 -54 -36 -118 -78 -142
-93 -175 -107 -551 -459 -691 -645 -132 -177 -334 -489 -334 -516 0 -4 -21
-48 -46 -99 -25 -51 -70 -165 -99 -253 -126 -372 -151 -559 -135 -995 11 -290
67 -551 180 -835 195 -493 512 -891 940 -1182 478 -324 1110 -494 1630 -438
524 57 1044 309 1397 678 264 277 429 594 490 944 27 153 24 418 -6 553 -77
351 -310 701 -592 890 -129 86 -174 96 -255 55 -63 -31 -94 -81 -94 -153 0
-65 33 -224 59 -285 44 -102 54 -164 54 -337 0 -141 -3 -177 -22 -245 -29
-104 -88 -222 -157 -315 -30 -41 -69 -99 -85 -130 -39 -74 -142 -190 -232
-262 -168 -136 -450 -245 -678 -264 -178 -14 -464 53 -673 158 -386 193 -663
514 -798 923 -70 209 -90 337 -90 565 -1 182 0 184 57 400 28 107 163 393 223
475 21 28 49 68 63 90 77 119 344 379 511 497 46 33 91 65 100 73 34 28 69 48
74 42 3 -3 -7 -12 -23 -21 -40 -21 -108 -85 -100 -93 9 -9 95 37 161 86 28 21
62 44 76 51 14 7 48 34 76 62 54 53 143 92 334 148 105 31 217 49 187 30 -44
-28 26 -32 153 -8 30 5 111 16 180 23 69 8 150 19 180 24 63 12 108 7 165 -19
22 -10 94 -28 160 -40 151 -27 277 -58 430 -109 296 -97 422 -152 610 -267 61
-37 130 -79 155 -93 173 -99 505 -378 627 -526 114 -139 126 -154 185 -245
139 -215 213 -376 289 -635 27 -92 38 -120 38 -94 1 19 -4 40 -10 46 -6 6 -9
19 -7 29 4 16 7 14 17 -10 17 -43 60 -238 72 -326 5 -41 16 -113 25 -160 24
-138 29 -355 9 -514 -9 -75 -17 -147 -19 -159 -1 -12 -5 -29 -8 -37 -4 -8 -9
-40 -13 -70 -3 -30 -17 -99 -30 -153 -25 -100 -135 -412 -160 -457 -18 -32
-85 -171 -85 -177 0 -2 5 -1 11 3 6 4 -9 -24 -35 -61 -25 -37 -47 -72 -47 -79
-5 -43 -18 -76 -32 -76 -17 0 -69 -89 -61 -102 4 -7 2 -8 -4 -4 -8 4 -12 0
-12 -11 0 -20 -86 -141 -95 -133 -7 7 -84 -103 -79 -112 19 -31 -281 -367
-521 -584 -193 -174 -259 -221 -495 -354 -36 -20 -86 -52 -111 -72 -48 -36
-454 -204 -555 -229 -27 -7 -51 -15 -54 -19 -5 -7 -224 -72 -305 -91 -69 -16
-83 -33 -22 -26 43 4 46 3 30 -10 -17 -13 -16 -14 9 -9 15 4 29 2 32 -3 6 -9
-17 -20 -99 -45 -68 -21 -417 -99 -500 -111 -78 -12 -95 -17 -95 -26 0 -5 28
-7 63 -4 l62 5 -50 -15 c-27 -9 -97 -24 -155 -34 -58 -11 -92 -20 -77 -20 43
-1 252 27 447 61 96 16 204 34 240 39 36 5 82 14 104 20 21 6 40 8 42 6 6 -5
-280 -92 -386 -116 -82 -19 -167 -34 -390 -67 -58 -8 -145 -22 -195 -29 -49
-8 -116 -17 -147 -21 -32 -3 -58 -10 -58 -14 0 -8 221 -7 420 3 87 5 114 4 90
-3 -53 -14 -285 -47 -465 -66 -88 -9 -164 -20 -170 -25 -12 -12 17 -11 228 1
219 14 463 42 691 80 98 17 181 28 183 26 9 -9 -101 -36 -227 -55 -69 -11
-163 -27 -210 -35 -75 -13 -259 -34 -435 -50 -83 -8 -521 -25 -687 -27 -76 -1
-138 -5 -138 -10 0 -23 588 -23 955 0 83 6 204 12 270 15 66 4 149 10 185 16
81 12 137 13 125 2 -14 -12 -365 -78 -510 -96 -112 -15 -373 -33 -650 -47
l-60 -3 70 -5 c39 -3 124 -4 190 -1 66 3 134 3 150 -1 28 -7 29 -7 4 -8 -14
-1 -28 -4 -31 -7 -3 -3 -39 -7 -79 -9 -40 -3 -78 -10 -83 -16 -8 -8 29 -10
144 -5 151 7 454 32 495 41 11 3 56 9 100 14 104 12 506 83 660 116 66 14 130
23 142 20 50 -12 469 117 748 230 588 238 988 519 1451 1017 210 226 247 272
371 448 300 427 515 874 656 1360 23 79 50 212 79 390 25 151 11 544 -32 920
-12 111 -67 387 -100 503 -58 205 -156 461 -250 647 -205 409 -538 805 -890
1058 -47 33 -103 74 -125 90 -98 70 -424 266 -565 339 -422 219 -929 384
-1285 418 -72 7 -460 13 -530 9z"/>
</g>
</svg>
