<?xml version="1.0" encoding="UTF-8" standalone="no"?>
<!DOCTYPE svg PUBLIC "-//W3C//DTD SVG 1.1//EN"
 "http://www.w3.org/Graphics/SVG/1.1/DTD/svg11.dtd">
<!-- Generated by graphviz version 9.0.0 (20230911.1827)
 -->
<!-- Title: connections Pages: 1 -->
<svg width="438pt" height="308pt"
 viewBox="0.00 0.00 438.00 308.00" xmlns="http://www.w3.org/2000/svg" xmlns:xlink="http://www.w3.org/1999/xlink">
<g id="graph0" class="graph" transform="scale(1 1) rotate(0) translate(4 304)">
<title>connections</title>
<polygon fill="white" stroke="none" points="-4,4 -4,-304 434,-304 434,4 -4,4"/>
<!-- Juana Baeza -->
<g id="node1" class="node">
<title>Juana Baeza</title>
<ellipse fill="none" stroke="black" cx="68.89" cy="-129.6" rx="39.2" ry="18"/>
<text text-anchor="middle" x="68.89" y="-125.72" font-family="Times,serif" font-size="10.00">Juana Baeza</text>
</g>
<!-- Micaela Laboy -->
<g id="node4" class="node">
<title>Micaela Laboy</title>
<ellipse fill="none" stroke="black" cx="46.21" cy="-179.82" rx="45.86" ry="18"/>
<text text-anchor="middle" x="46.21" y="-175.94" font-family="Times,serif" font-size="10.00">Micaela Laboy</text>
</g>
<!-- Juana Baeza&#45;&#45;Micaela Laboy -->
<g id="edge4" class="edge">
<title>Juana Baeza&#45;&#45;Micaela Laboy</title>
<path fill="none" stroke="black" d="M60.83,-147.44C58.74,-152.07 56.49,-157.05 54.4,-161.69"/>
</g>
<!-- Verónica Altamirano -->
<g id="node5" class="node">
<title>Verónica Altamirano</title>
<ellipse fill="none" stroke="black" cx="188.06" cy="-168.62" rx="59.17" ry="18"/>
<text text-anchor="middle" x="188.06" y="-164.75" font-family="Times,serif" font-size="10.00">Verónica Altamirano</text>
</g>
<!-- Juana Baeza&#45;&#45;Verónica Altamirano -->
<g id="edge3" class="edge">
<title>Juana Baeza&#45;&#45;Verónica Altamirano</title>
<path fill="none" stroke="black" d="M101.14,-140.16C115.34,-144.81 132.18,-150.32 147.25,-155.26"/>
</g>
<!-- Agustín Rodríquez -->
<g id="node2" class="node">
<title>Agustín Rodríquez</title>
<ellipse fill="none" stroke="black" cx="190.75" cy="-122.47" rx="55.62" ry="18"/>
<text text-anchor="middle" x="190.75" y="-118.59" font-family="Times,serif" font-size="10.00">Agustín Rodríquez</text>
</g>
<!-- Ariadna Caraballo -->
<g id="node3" class="node">
<title>Ariadna Caraballo</title>
<ellipse fill="none" stroke="black" cx="174.75" cy="-78.07" rx="53.84" ry="18"/>
<text text-anchor="middle" x="174.75" y="-74.19" font-family="Times,serif" font-size="10.00">Ariadna Caraballo</text>
</g>
<!-- Agustín Rodríquez&#45;&#45;Ariadna Caraballo -->
<g id="edge1" class="edge">
<title>Agustín Rodríquez&#45;&#45;Ariadna Caraballo</title>
<path fill="none" stroke="black" d="M184.15,-104.15C183.22,-101.57 182.27,-98.92 181.34,-96.34"/>
</g>
<!-- Agustín Rodríquez&#45;&#45;Verónica Altamirano -->
<g id="edge2" class="edge">
<title>Agustín Rodríquez&#45;&#45;Verónica Altamirano</title>
<path fill="none" stroke="black" d="M189.69,-140.71C189.51,-143.83 189.32,-147.08 189.13,-150.21"/>
</g>
<!-- Reina Rivero -->
<g id="node6" class="node">
<title>Reina Rivero</title>
<ellipse fill="none" stroke="black" cx="293.5" cy="-44.56" rx="41.42" ry="18"/>
<text text-anchor="middle" x="293.5" y="-40.69" font-family="Times,serif" font-size="10.00">Reina Rivero</text>
</g>
<!-- Elias Merino -->
<g id="node7" class="node">
<title>Elias Merino</title>
<ellipse fill="none" stroke="black" cx="52.24" cy="-77.64" rx="40.53" ry="18"/>
<text text-anchor="middle" x="52.24" y="-73.77" font-family="Times,serif" font-size="10.00">Elias Merino</text>
</g>
<!-- Minerva Guerrero -->
<g id="node8" class="node">
<title>Minerva Guerrero</title>
<ellipse fill="none" stroke="black" cx="316.24" cy="-101.64" rx="52.51" ry="18"/>
<text text-anchor="middle" x="316.24" y="-97.77" font-family="Times,serif" font-size="10.00">Minerva Guerrero</text>
</g>
<!-- Mauro Balderas -->
<g id="node9" class="node">
<title>Mauro Balderas</title>
<ellipse fill="none" stroke="black" cx="179.24" cy="-17.64" rx="47.63" ry="18"/>
<text text-anchor="middle" x="179.24" y="-13.77" font-family="Times,serif" font-size="10.00">Mauro Balderas</text>
</g>
<!-- Pilar Alarcón -->
<g id="node10" class="node">
<title>Pilar Alarcón</title>
<ellipse fill="none" stroke="black" cx="388.77" cy="-30.33" rx="40.97" ry="18"/>
<text text-anchor="middle" x="388.77" y="-26.45" font-family="Times,serif" font-size="10.00">Pilar Alarcón</text>
</g>
<!-- Pilar Alarcón&#45;&#45;Reina Rivero -->
<g id="edge5" class="edge">
<title>Pilar Alarcón&#45;&#45;Reina Rivero</title>
<path fill="none" stroke="black" d="M349.47,-36.2C344.04,-37.01 338.45,-37.84 333.02,-38.66"/>
</g>
<!-- Daniela Menéndez -->
<g id="node11" class="node">
<title>Daniela Menéndez</title>
<ellipse fill="none" stroke="black" cx="222.77" cy="-218.5" rx="55.18" ry="18"/>
<text text-anchor="middle" x="222.77" y="-214.62" font-family="Times,serif" font-size="10.00">Daniela Menéndez</text>
</g>
<!-- Marco Antonio Barrera -->
<g id="node12" class="node">
<title>Marco Antonio Barrera</title>
<ellipse fill="none" stroke="black" cx="354.52" cy="-206.54" rx="64.94" ry="18"/>
<text text-anchor="middle" x="354.52" y="-202.66" font-family="Times,serif" font-size="10.00">Marco Antonio Barrera</text>
</g>
<!-- Daniela Menéndez&#45;&#45;Marco Antonio Barrera -->
<g id="edge8" class="edge">
<title>Daniela Menéndez&#45;&#45;Marco Antonio Barrera</title>
<path fill="none" stroke="black" d="M276.36,-213.63C281.63,-213.15 287.01,-212.67 292.36,-212.18"/>
</g>
<!-- Cristal Soliz -->
<g id="node13" class="node">
<title>Cristal Soliz</title>
<ellipse fill="none" stroke="black" cx="301.13" cy="-162.09" rx="39.2" ry="18"/>
<text text-anchor="middle" x="301.13" y="-158.21" font-family="Times,serif" font-size="10.00">Cristal Soliz</text>
</g>
<!-- Cristal Soliz&#45;&#45;Daniela Menéndez -->
<g id="edge7" class="edge">
<title>Cristal Soliz&#45;&#45;Daniela Menéndez</title>
<path fill="none" stroke="black" d="M279.72,-177.5C269.3,-185 256.75,-194.04 246.08,-201.72"/>
</g>
<!-- Cristal Soliz&#45;&#45;Marco Antonio Barrera -->
<g id="edge6" class="edge">
<title>Cristal Soliz&#45;&#45;Marco Antonio Barrera</title>
<path fill="none" stroke="black" d="M320.41,-178.13C324.71,-181.71 329.29,-185.53 333.65,-189.16"/>
</g>
<!-- Bernardo Narváez -->
<g id="node14" class="node">
<title>Bernardo Narváez</title>
<ellipse fill="none" stroke="black" cx="89.24" cy="-245.64" rx="52.96" ry="18"/>
<text text-anchor="middle" x="89.24" y="-241.77" font-family="Times,serif" font-size="10.00">Bernardo Narváez</text>
</g>
<!-- Óscar Barrios -->
<g id="node15" class="node">
<title>Óscar Barrios</title>
<ellipse fill="none" stroke="black" cx="306.24" cy="-281.64" rx="41.86" ry="18"/>
<text text-anchor="middle" x="306.24" y="-277.77" font-family="Times,serif" font-size="10.00">Óscar Barrios</text>
</g>
</g>
</svg>
