<?xml version="1.0" encoding="UTF-8" standalone="no"?>
<!DOCTYPE svg PUBLIC "-//W3C//DTD SVG 1.1//EN"
 "http://www.w3.org/Graphics/SVG/1.1/DTD/svg11.dtd">
<!-- Generated by graphviz version 9.0.0 (20230911.1827)
 -->
<!-- Title: connections Pages: 1 -->
<svg width="473pt" height="314pt"
 viewBox="0.00 0.00 473.00 314.00" xmlns="http://www.w3.org/2000/svg" xmlns:xlink="http://www.w3.org/1999/xlink">
<g id="graph0" class="graph" transform="scale(1 1) rotate(0) translate(4 310)">
<title>connections</title>
<polygon fill="white" stroke="none" points="-4,4 -4,-310 469,-310 469,4 -4,4"/>
<!-- Violeta Rocha -->
<g id="node1" class="node">
<title>Violeta Rocha</title>
<ellipse fill="none" stroke="black" cx="87.28" cy="-129.53" rx="43.64" ry="18"/>
<text text-anchor="middle" x="87.28" y="-125.65" font-family="Times,serif" font-size="10.00">Violeta Rocha</text>
</g>
<!-- Liliana Dueñas -->
<g id="node2" class="node">
<title>Liliana Dueñas</title>
<ellipse fill="none" stroke="black" cx="203.6" cy="-117.2" rx="46.3" ry="18"/>
<text text-anchor="middle" x="203.6" y="-113.33" font-family="Times,serif" font-size="10.00">Liliana Dueñas</text>
</g>
<!-- Lucas de la Crúz -->
<g id="node5" class="node">
<title>Lucas de la Crúz</title>
<ellipse fill="none" stroke="black" cx="199.26" cy="-167.13" rx="49.41" ry="18"/>
<text text-anchor="middle" x="199.26" y="-163.25" font-family="Times,serif" font-size="10.00">Lucas de la Crúz</text>
</g>
<!-- Liliana Dueñas&#45;&#45;Lucas de la Crúz -->
<g id="edge2" class="edge">
<title>Liliana Dueñas&#45;&#45;Lucas de la Crúz</title>
<path fill="none" stroke="black" d="M202.01,-135.51C201.63,-139.85 201.23,-144.48 200.85,-148.82"/>
</g>
<!-- Hermelinda Robledo -->
<g id="node3" class="node">
<title>Hermelinda Robledo</title>
<ellipse fill="none" stroke="black" cx="182.87" cy="-72.62" rx="60.06" ry="18"/>
<text text-anchor="middle" x="182.87" y="-68.74" font-family="Times,serif" font-size="10.00">Hermelinda Robledo</text>
</g>
<!-- Hermelinda Robledo&#45;&#45;Liliana Dueñas -->
<g id="edge1" class="edge">
<title>Hermelinda Robledo&#45;&#45;Liliana Dueñas</title>
<path fill="none" stroke="black" d="M191.3,-90.75C192.6,-93.55 193.94,-96.44 195.24,-99.23"/>
</g>
<!-- Marcos Miramontes -->
<g id="node4" class="node">
<title>Marcos Miramontes</title>
<ellipse fill="none" stroke="black" cx="68.73" cy="-175.92" rx="57.39" ry="18"/>
<text text-anchor="middle" x="68.73" y="-172.04" font-family="Times,serif" font-size="10.00">Marcos Miramontes</text>
</g>
<!-- Marcos Miramontes&#45;&#45;Violeta Rocha -->
<g id="edge4" class="edge">
<title>Marcos Miramontes&#45;&#45;Violeta Rocha</title>
<path fill="none" stroke="black" d="M76.06,-157.58C77.36,-154.34 78.71,-150.97 80,-147.73"/>
</g>
<!-- Lucas de la Crúz&#45;&#45;Violeta Rocha -->
<g id="edge3" class="edge">
<title>Lucas de la Crúz&#45;&#45;Violeta Rocha</title>
<path fill="none" stroke="black" d="M162.28,-154.71C149.16,-150.3 134.46,-145.37 121.57,-141.04"/>
</g>
<!-- José Luis Candelaria -->
<g id="node6" class="node">
<title>José Luis Candelaria</title>
<ellipse fill="none" stroke="black" cx="311.68" cy="-287.88" rx="59.17" ry="18"/>
<text text-anchor="middle" x="311.68" y="-284" font-family="Times,serif" font-size="10.00">José Luis Candelaria</text>
</g>
<!-- Renato Soliz -->
<g id="node10" class="node">
<title>Renato Soliz</title>
<ellipse fill="none" stroke="black" cx="424.59" cy="-271.01" rx="40.53" ry="18"/>
<text text-anchor="middle" x="424.59" y="-267.13" font-family="Times,serif" font-size="10.00">Renato Soliz</text>
</g>
<!-- José Luis Candelaria&#45;&#45;Renato Soliz -->
<g id="edge5" class="edge">
<title>José Luis Candelaria&#45;&#45;Renato Soliz</title>
<path fill="none" stroke="black" d="M365.16,-279.89C372.11,-278.85 379.13,-277.8 385.78,-276.81"/>
</g>
<!-- Débora Carrero -->
<g id="node7" class="node">
<title>Débora Carrero</title>
<ellipse fill="none" stroke="black" cx="178.24" cy="-17.64" rx="46.3" ry="18"/>
<text text-anchor="middle" x="178.24" y="-13.77" font-family="Times,serif" font-size="10.00">Débora Carrero</text>
</g>
<!-- Antonia Saldaña -->
<g id="node8" class="node">
<title>Antonia Saldaña</title>
<ellipse fill="none" stroke="black" cx="292.24" cy="-17.64" rx="49.85" ry="18"/>
<text text-anchor="middle" x="292.24" y="-13.77" font-family="Times,serif" font-size="10.00">Antonia Saldaña</text>
</g>
<!-- Cristobal Nava -->
<g id="node9" class="node">
<title>Cristobal Nava</title>
<ellipse fill="none" stroke="black" cx="57.24" cy="-72.64" rx="45.86" ry="18"/>
<text text-anchor="middle" x="57.24" y="-68.77" font-family="Times,serif" font-size="10.00">Cristobal Nava</text>
</g>
<!-- Esther Rangel -->
<g id="node11" class="node">
<title>Esther Rangel</title>
<ellipse fill="none" stroke="black" cx="241.39" cy="-224.78" rx="43.19" ry="18"/>
<text text-anchor="middle" x="241.39" y="-220.91" font-family="Times,serif" font-size="10.00">Esther Rangel</text>
</g>
<!-- Alta &#160;Gracia Colón -->
<g id="node12" class="node">
<title>Alta &#160;Gracia Colón</title>
<ellipse fill="none" stroke="black" cx="353.93" cy="-218.84" rx="55.18" ry="18"/>
<text text-anchor="middle" x="353.93" y="-214.97" font-family="Times,serif" font-size="10.00">Alta &#160;Gracia Colón</text>
</g>
<!-- Alta &#160;Gracia Colón&#45;&#45;Esther Rangel -->
<g id="edge8" class="edge">
<title>Alta &#160;Gracia Colón&#45;&#45;Esther Rangel</title>
<path fill="none" stroke="black" d="M298.98,-221.74C294.18,-221.99 289.37,-222.25 284.68,-222.5"/>
</g>
<!-- Abril Malave -->
<g id="node13" class="node">
<title>Abril Malave</title>
<ellipse fill="none" stroke="black" cx="298.82" cy="-171.75" rx="41.86" ry="18"/>
<text text-anchor="middle" x="298.82" y="-167.88" font-family="Times,serif" font-size="10.00">Abril Malave</text>
</g>
<!-- Abril Malave&#45;&#45;Esther Rangel -->
<g id="edge7" class="edge">
<title>Abril Malave&#45;&#45;Esther Rangel</title>
<path fill="none" stroke="black" d="M280.97,-188.24C274.12,-194.57 266.3,-201.78 259.43,-208.12"/>
</g>
<!-- Abril Malave&#45;&#45;Alta &#160;Gracia Colón -->
<g id="edge6" class="edge">
<title>Abril Malave&#45;&#45;Alta &#160;Gracia Colón</title>
<path fill="none" stroke="black" d="M318.09,-188.22C323.18,-192.57 328.69,-197.28 333.82,-201.66"/>
</g>
<!-- Augusto Jimínez -->
<g id="node14" class="node">
<title>Augusto Jimínez</title>
<ellipse fill="none" stroke="black" cx="127.24" cy="-237.64" rx="50.29" ry="18"/>
<text text-anchor="middle" x="127.24" y="-233.77" font-family="Times,serif" font-size="10.00">Augusto Jimínez</text>
</g>
<!-- Gabriel Ruelas -->
<g id="node15" class="node">
<title>Gabriel Ruelas</title>
<ellipse fill="none" stroke="black" cx="45.24" cy="-17.64" rx="45.41" ry="18"/>
<text text-anchor="middle" x="45.24" y="-13.77" font-family="Times,serif" font-size="10.00">Gabriel Ruelas</text>
</g>
</g>
</svg>
