<?xml version="1.0" encoding="UTF-8" standalone="no"?>
<!DOCTYPE svg PUBLIC "-//W3C//DTD SVG 1.1//EN"
 "http://www.w3.org/Graphics/SVG/1.1/DTD/svg11.dtd">
<!-- Generated by graphviz version 9.0.0 (20230911.1827)
 -->
<!-- Title: connections Pages: 1 -->
<svg width="441pt" height="308pt"
 viewBox="0.00 0.00 441.00 308.00" xmlns="http://www.w3.org/2000/svg" xmlns:xlink="http://www.w3.org/1999/xlink">
<g id="graph0" class="graph" transform="scale(1 1) rotate(0) translate(4 304)">
<title>connections</title>
<polygon fill="white" stroke="none" points="-4,4 -4,-304 437,-304 437,4 -4,4"/>
<!-- Lourdes Quezada -->
<g id="node1" class="node">
<title>Lourdes Quezada</title>
<ellipse fill="none" stroke="black" cx="51.43" cy="-128.33" rx="51.63" ry="18"/>
<text text-anchor="middle" x="51.43" y="-124.45" font-family="Times,serif" font-size="10.00">Lourdes Quezada</text>
</g>
<!-- Clemente Caballero -->
<g id="node2" class="node">
<title>Clemente Caballero</title>
<ellipse fill="none" stroke="black" cx="179.97" cy="-117.05" rx="57.39" ry="18"/>
<text text-anchor="middle" x="179.97" y="-113.18" font-family="Times,serif" font-size="10.00">Clemente Caballero</text>
</g>
<!-- Adalberto Fernández -->
<g id="node3" class="node">
<title>Adalberto Fernández</title>
<ellipse fill="none" stroke="black" cx="163.67" cy="-72.9" rx="60.06" ry="18"/>
<text text-anchor="middle" x="163.67" y="-69.02" font-family="Times,serif" font-size="10.00">Adalberto Fernández</text>
</g>
<!-- Adalberto Fernández&#45;&#45;Clemente Caballero -->
<g id="edge1" class="edge">
<title>Adalberto Fernández&#45;&#45;Clemente Caballero</title>
<path fill="none" stroke="black" d="M170.4,-91.11C171.34,-93.68 172.32,-96.32 173.26,-98.88"/>
</g>
<!-- Darío Leyva -->
<g id="node4" class="node">
<title>Darío Leyva</title>
<ellipse fill="none" stroke="black" cx="39.51" cy="-175.46" rx="39.64" ry="18"/>
<text text-anchor="middle" x="39.51" y="-171.58" font-family="Times,serif" font-size="10.00">Darío Leyva</text>
</g>
<!-- Darío Leyva&#45;&#45;Lourdes Quezada -->
<g id="edge4" class="edge">
<title>Darío Leyva&#45;&#45;Lourdes Quezada</title>
<path fill="none" stroke="black" d="M44.15,-157.1C45.01,-153.69 45.92,-150.12 46.78,-146.71"/>
</g>
<!-- Arturo Santiago -->
<g id="node5" class="node">
<title>Arturo Santiago</title>
<ellipse fill="none" stroke="black" cx="178.25" cy="-166.21" rx="48.08" ry="18"/>
<text text-anchor="middle" x="178.25" y="-162.34" font-family="Times,serif" font-size="10.00">Arturo Santiago</text>
</g>
<!-- Arturo Santiago&#45;&#45;Lourdes Quezada -->
<g id="edge3" class="edge">
<title>Arturo Santiago&#45;&#45;Lourdes Quezada</title>
<path fill="none" stroke="black" d="M140.2,-154.85C124.73,-150.23 106.85,-144.88 91.21,-140.21"/>
</g>
<!-- Arturo Santiago&#45;&#45;Clemente Caballero -->
<g id="edge2" class="edge">
<title>Arturo Santiago&#45;&#45;Clemente Caballero</title>
<path fill="none" stroke="black" d="M178.89,-147.91C179.03,-143.87 179.18,-139.58 179.33,-135.54"/>
</g>
<!-- Ivonne Galván -->
<g id="node6" class="node">
<title>Ivonne Galván</title>
<ellipse fill="none" stroke="black" cx="287.55" cy="-44" rx="45.41" ry="18"/>
<text text-anchor="middle" x="287.55" y="-40.13" font-family="Times,serif" font-size="10.00">Ivonne Galván</text>
</g>
<!-- Santiago Báez -->
<g id="node10" class="node">
<title>Santiago Báez</title>
<ellipse fill="none" stroke="black" cx="388.72" cy="-28.89" rx="44.08" ry="18"/>
<text text-anchor="middle" x="388.72" y="-25.01" font-family="Times,serif" font-size="10.00">Santiago Báez</text>
</g>
<!-- Ivonne Galván&#45;&#45;Santiago Báez -->
<g id="edge5" class="edge">
<title>Ivonne Galván&#45;&#45;Santiago Báez</title>
<path fill="none" stroke="black" d="M330.45,-37.59C335.95,-36.77 341.56,-35.93 347.04,-35.11"/>
</g>
<!-- Sonia Zamora -->
<g id="node7" class="node">
<title>Sonia Zamora</title>
<ellipse fill="none" stroke="black" cx="296.24" cy="-105.64" rx="42.75" ry="18"/>
<text text-anchor="middle" x="296.24" y="-101.77" font-family="Times,serif" font-size="10.00">Sonia Zamora</text>
</g>
<!-- Julia de la Crúz -->
<g id="node8" class="node">
<title>Julia de la Crúz</title>
<ellipse fill="none" stroke="black" cx="47.24" cy="-72.64" rx="46.74" ry="18"/>
<text text-anchor="middle" x="47.24" y="-68.77" font-family="Times,serif" font-size="10.00">Julia de la Crúz</text>
</g>
<!-- Eloisa Valdés -->
<g id="node9" class="node">
<title>Eloisa Valdés</title>
<ellipse fill="none" stroke="black" cx="262.24" cy="-281.64" rx="41.86" ry="18"/>
<text text-anchor="middle" x="262.24" y="-277.77" font-family="Times,serif" font-size="10.00">Eloisa Valdés</text>
</g>
<!-- Homero Abrego -->
<g id="node11" class="node">
<title>Homero Abrego</title>
<ellipse fill="none" stroke="black" cx="245.91" cy="-227.33" rx="48.08" ry="18"/>
<text text-anchor="middle" x="245.91" y="-223.45" font-family="Times,serif" font-size="10.00">Homero Abrego</text>
</g>
<!-- Soledad Palacios -->
<g id="node13" class="node">
<title>Soledad Palacios</title>
<ellipse fill="none" stroke="black" cx="290.13" cy="-182.83" rx="50.29" ry="18"/>
<text text-anchor="middle" x="290.13" y="-178.95" font-family="Times,serif" font-size="10.00">Soledad Palacios</text>
</g>
<!-- Homero Abrego&#45;&#45;Soledad Palacios -->
<g id="edge7" class="edge">
<title>Homero Abrego&#45;&#45;Soledad Palacios</title>
<path fill="none" stroke="black" d="M262.88,-210.25C266.2,-206.92 269.67,-203.42 272.99,-200.08"/>
</g>
<!-- Adán Loya -->
<g id="node12" class="node">
<title>Adán Loya</title>
<ellipse fill="none" stroke="black" cx="349.12" cy="-231.08" rx="36.54" ry="18"/>
<text text-anchor="middle" x="349.12" y="-227.2" font-family="Times,serif" font-size="10.00">Adán Loya</text>
</g>
<!-- Adán Loya&#45;&#45;Homero Abrego -->
<g id="edge8" class="edge">
<title>Adán Loya&#45;&#45;Homero Abrego</title>
<path fill="none" stroke="black" d="M312.44,-229.74C306.53,-229.53 300.34,-229.3 294.21,-229.08"/>
</g>
<!-- Adán Loya&#45;&#45;Soledad Palacios -->
<g id="edge6" class="edge">
<title>Adán Loya&#45;&#45;Soledad Palacios</title>
<path fill="none" stroke="black" d="M330.13,-215.54C323.93,-210.48 317.03,-204.82 310.72,-199.66"/>
</g>
<!-- Citlali Villareal -->
<g id="node14" class="node">
<title>Citlali Villareal</title>
<ellipse fill="none" stroke="black" cx="168.24" cy="-17.64" rx="46.74" ry="18"/>
<text text-anchor="middle" x="168.24" y="-13.77" font-family="Times,serif" font-size="10.00">Citlali Villareal</text>
</g>
<!-- Mauro Camarillo -->
<g id="node15" class="node">
<title>Mauro Camarillo</title>
<ellipse fill="none" stroke="black" cx="127.24" cy="-226.64" rx="50.74" ry="18"/>
<text text-anchor="middle" x="127.24" y="-222.77" font-family="Times,serif" font-size="10.00">Mauro Camarillo</text>
</g>
</g>
</svg>
