<?xml version="1.0" encoding="UTF-8" standalone="no"?>
<!DOCTYPE svg PUBLIC "-//W3C//DTD SVG 1.1//EN"
 "http://www.w3.org/Graphics/SVG/1.1/DTD/svg11.dtd">
<!-- Generated by graphviz version 9.0.0 (20230911.1827)
 -->
<!-- Title: lineage Pages: 1 -->
<svg width="214pt" height="332pt"
 viewBox="0.00 0.00 213.99 332.00" xmlns="http://www.w3.org/2000/svg" xmlns:xlink="http://www.w3.org/1999/xlink">
<g id="graph0" class="graph" transform="scale(1 1) rotate(0) translate(4 328)">
<title>lineage</title>
<polygon fill="white" stroke="none" points="-4,4 -4,-328 209.99,-328 209.99,4 -4,4"/>
<!-- Arturo -->
<g id="node1" class="node">
<title>Arturo</title>
<ellipse fill="none" stroke="black" cx="29.99" cy="-306" rx="27" ry="18"/>
<text text-anchor="middle" x="29.99" y="-302.12" font-family="Times,serif" font-size="10.00">Arturo</text>
</g>
<!-- Clemente -->
<g id="node2" class="node">
<title>Clemente</title>
<ellipse fill="none" stroke="black" cx="65.99" cy="-234" rx="32.54" ry="18"/>
<text text-anchor="middle" x="65.99" y="-230.12" font-family="Times,serif" font-size="10.00">Clemente</text>
</g>
<!-- Arturo&#45;&gt;Clemente -->
<g id="edge1" class="edge">
<title>Arturo&#45;&gt;Clemente</title>
<path fill="none" stroke="black" d="M38.34,-288.76C42.46,-280.75 47.54,-270.88 52.22,-261.79"/>
<polygon fill="black" stroke="black" points="55.29,-263.47 56.75,-252.98 49.06,-260.27 55.29,-263.47"/>
</g>
<!-- Homero -->
<g id="node4" class="node">
<title>Homero</title>
<ellipse fill="none" stroke="black" cx="28.99" cy="-162" rx="28.99" ry="18"/>
<text text-anchor="middle" x="28.99" y="-158.12" font-family="Times,serif" font-size="10.00">Homero</text>
</g>
<!-- Clemente&#45;&gt;Homero -->
<g id="edge3" class="edge">
<title>Clemente&#45;&gt;Homero</title>
<path fill="none" stroke="black" d="M57.22,-216.41C52.99,-208.39 47.79,-198.57 43.02,-189.54"/>
<polygon fill="black" stroke="black" points="46.17,-188.01 38.41,-180.81 39.98,-191.28 46.17,-188.01"/>
</g>
<!-- Ivonne -->
<g id="node5" class="node">
<title>Ivonne</title>
<ellipse fill="none" stroke="black" cx="102.99" cy="-162" rx="27" ry="18"/>
<text text-anchor="middle" x="102.99" y="-158.12" font-family="Times,serif" font-size="10.00">Ivonne</text>
</g>
<!-- Clemente&#45;&gt;Ivonne -->
<g id="edge4" class="edge">
<title>Clemente&#45;&gt;Ivonne</title>
<path fill="none" stroke="black" d="M74.76,-216.41C79,-208.39 84.19,-198.57 88.96,-189.54"/>
<polygon fill="black" stroke="black" points="92,-191.28 93.58,-180.81 85.81,-188.01 92,-191.28"/>
</g>
<!-- Darío -->
<g id="node3" class="node">
<title>Darío</title>
<ellipse fill="none" stroke="black" cx="101.99" cy="-306" rx="27" ry="18"/>
<text text-anchor="middle" x="101.99" y="-302.12" font-family="Times,serif" font-size="10.00">Darío</text>
</g>
<!-- Darío&#45;&gt;Clemente -->
<g id="edge2" class="edge">
<title>Darío&#45;&gt;Clemente</title>
<path fill="none" stroke="black" d="M93.64,-288.76C89.52,-280.75 84.44,-270.88 79.77,-261.79"/>
<polygon fill="black" stroke="black" points="82.93,-260.27 75.24,-252.98 76.7,-263.47 82.93,-260.27"/>
</g>
<!-- Lourdes -->
<g id="node6" class="node">
<title>Lourdes</title>
<ellipse fill="none" stroke="black" cx="139.99" cy="-90" rx="28.99" ry="18"/>
<text text-anchor="middle" x="139.99" y="-86.12" font-family="Times,serif" font-size="10.00">Lourdes</text>
</g>
<!-- Ivonne&#45;&gt;Lourdes -->
<g id="edge5" class="edge">
<title>Ivonne&#45;&gt;Lourdes</title>
<path fill="none" stroke="black" d="M111.57,-144.76C115.81,-136.75 121.03,-126.88 125.83,-117.79"/>
<polygon fill="black" stroke="black" points="128.92,-119.45 130.49,-108.97 122.73,-116.18 128.92,-119.45"/>
</g>
<!-- Santiago -->
<g id="node8" class="node">
<title>Santiago</title>
<ellipse fill="none" stroke="black" cx="139.99" cy="-18" rx="30.77" ry="18"/>
<text text-anchor="middle" x="139.99" y="-14.12" font-family="Times,serif" font-size="10.00">Santiago</text>
</g>
<!-- Lourdes&#45;&gt;Santiago -->
<g id="edge7" class="edge">
<title>Lourdes&#45;&gt;Santiago</title>
<path fill="none" stroke="black" d="M139.99,-71.7C139.99,-64.41 139.99,-55.73 139.99,-47.54"/>
<polygon fill="black" stroke="black" points="143.49,-47.62 139.99,-37.62 136.49,-47.62 143.49,-47.62"/>
</g>
<!-- Soledad -->
<g id="node7" class="node">
<title>Soledad</title>
<ellipse fill="none" stroke="black" cx="176.99" cy="-162" rx="28.99" ry="18"/>
<text text-anchor="middle" x="176.99" y="-158.12" font-family="Times,serif" font-size="10.00">Soledad</text>
</g>
<!-- Soledad&#45;&gt;Lourdes -->
<g id="edge6" class="edge">
<title>Soledad&#45;&gt;Lourdes</title>
<path fill="none" stroke="black" d="M168.22,-144.41C163.99,-136.39 158.79,-126.57 154.02,-117.54"/>
<polygon fill="black" stroke="black" points="157.17,-116.01 149.41,-108.81 150.98,-119.28 157.17,-116.01"/>
</g>
</g>
</svg>
